<?xml version="1.0" encoding="UTF-8" standalone="no"?>
<svg
   xmlns:dc="http://purl.org/dc/elements/1.1/"
   xmlns:cc="http://creativecommons.org/ns#"
   xmlns:rdf="http://www.w3.org/1999/02/22-rdf-syntax-ns#"
   xmlns:svg="http://www.w3.org/2000/svg"
   xmlns="http://www.w3.org/2000/svg"
   id="svg8"
   version="1.1"
   viewBox="0 0 91.225823 23.190653"
   height="23.190653mm"
   width="91.225822mm">
  <defs
     id="defs2" />
  <metadata
     id="metadata5">
    <rdf:RDF>
      <cc:Work
         rdf:about="">
        <dc:format>image/svg+xml</dc:format>
        <dc:type
           rdf:resource="http://purl.org/dc/dcmitype/StillImage" />
        <dc:title></dc:title>
      </cc:Work>
    </rdf:RDF>
  </metadata>
  <flowRoot
     xml:space="preserve"
     id="flowRoot891"
     style="font-style:normal;font-variant:normal;font-weight:normal;font-stretch:normal;font-size:40px;line-height:1.25;font-family:'Noto Sans';-inkscape-font-specification:'Noto Sans';letter-spacing:0px;word-spacing:0px;fill:#000000;fill-opacity:1;stroke:none"
     transform="matrix(0.26458333,0,0,0.26458333,-578.73315,-832.45194)"><flowRegion
       id="flowRegion893"><rect
         id="rect895"
         width="433.35544"
         height="221.72849"
         x="384.36304"
         y="266.41541" /></flowRegion><flowPara
       id="flowPara897" /></flowRoot>  <text
     xml:space="preserve"
     style="font-style:normal;font-variant:normal;font-weight:normal;font-stretch:normal;font-size:10.58333302px;line-height:1.25;font-family:'Noto Sans';-inkscape-font-specification:'Noto Sans';letter-spacing:0px;word-spacing:0px;fill:#000000;fill-opacity:1;stroke:none;stroke-width:0.26458332"
     x="-353.9595"
     y="-779.86993"
     id="text917"><tspan
       id="tspan915"
       x="-353.9595"
       y="-770.24042"
       style="stroke-width:0.26458332" /></text>
  <flowRoot
     xml:space="preserve"
     id="flowRoot973"
     style="font-style:normal;font-variant:normal;font-weight:normal;font-stretch:normal;font-size:40px;line-height:1.25;font-family:'Noto Sans';-inkscape-font-specification:'Noto Sans';letter-spacing:0px;word-spacing:0px;fill:#000000;fill-opacity:1;stroke:none"
     transform="matrix(0.26458333,0,0,0.26458333,-578.73315,-832.45194)"><flowRegion
       id="flowRegion975"><rect
         id="rect977"
         width="587.90875"
         height="271.73102"
         x="-61.619305"
         y="704.31653" /></flowRegion><flowPara
       id="flowPara979" /></flowRoot>  <flowRoot
     xml:space="preserve"
     id="flowRoot1075"
     style="font-style:italic;font-variant:normal;font-weight:normal;font-stretch:normal;font-size:40px;line-height:1.25;font-family:'Noto Sans';-inkscape-font-specification:'Noto Sans Italic';letter-spacing:0px;word-spacing:0px;fill:#000000;fill-opacity:1;stroke:none"
     transform="matrix(0.26458333,0,0,0.26458333,-578.73315,-832.45194)"><flowRegion
       id="flowRegion1077"><rect
         id="rect1079"
         width="600.03058"
         height="200.01021"
         x="-150.51273"
         y="1306.3674" /></flowRegion><flowPara
       id="flowPara1081" /></flowRoot>  <flowRoot
     xml:space="preserve"
     id="flowRoot1083"
     style="font-style:italic;font-variant:normal;font-weight:normal;font-stretch:normal;font-size:40px;line-height:1.25;font-family:'Noto Sans';-inkscape-font-specification:'Noto Sans Italic';letter-spacing:0px;word-spacing:0px;fill:#000000;fill-opacity:1;stroke:none"
     transform="matrix(0.26458333,0,0,0.26458333,-578.73315,-832.45194)"><flowRegion
       id="flowRegion1085"><rect
         id="rect1087"
         width="537.40112"
         height="947.52307"
         x="-14.142136"
         y="411.37228" /></flowRegion><flowPara
       id="flowPara1089" /></flowRoot>  <text
     xml:space="preserve"
     style="font-style:italic;font-variant:normal;font-weight:normal;font-stretch:normal;font-size:10.58333302px;line-height:1.25;font-family:'Noto Sans';-inkscape-font-specification:'Noto Sans Italic';letter-spacing:0px;word-spacing:0px;fill:#000000;fill-opacity:1;stroke:none;stroke-width:0.26458332"
     x="-354.76129"
     y="-434.4241"
     id="text1128"><tspan
       id="tspan1126"
       x="-354.76129"
       y="-424.79459"
       style="stroke-width:0.26458332" /></text>
  <text
     xml:space="preserve"
     style="font-style:italic;font-variant:normal;font-weight:normal;font-stretch:normal;font-size:10.58333302px;line-height:1.25;font-family:'Noto Sans';-inkscape-font-specification:'Noto Sans Italic';letter-spacing:0px;word-spacing:0px;fill:#000000;fill-opacity:1;stroke:none;stroke-width:0.26458332"
     x="-15.65735"
     y="-636.97485"
     id="text1142"><tspan
       id="tspan1140"
       x="-15.65735"
       y="-627.34534"
       style="stroke-width:0.26458332" /></text>
  <flowRoot
     xml:space="preserve"
     id="flowRoot1199"
     style="font-style:italic;font-variant:normal;font-weight:normal;font-stretch:normal;font-size:40px;line-height:1.25;font-family:'Noto Sans';-inkscape-font-specification:'Noto Sans Italic';letter-spacing:0px;word-spacing:0px;fill:#000000;fill-opacity:1;stroke:none"
     transform="matrix(0.26458333,0,0,0.26458333,-578.73315,-832.45194)"><flowRegion
       id="flowRegion1201"><rect
         id="rect1203"
         width="1801.298"
         height="227.38278"
         x="-127.90282"
         y="687.2948" /></flowRegion><flowPara
       id="flowPara1205" /></flowRoot>  <text
     xml:space="preserve"
     style="font-style:italic;font-variant:normal;font-weight:normal;font-stretch:normal;font-size:10.58333302px;line-height:1.25;font-family:'Noto Sans';-inkscape-font-specification:'Noto Sans Italic';letter-spacing:0px;word-spacing:0px;fill:#000000;fill-opacity:1;stroke:none;stroke-width:0.26458332"
     x="476.14429"
     y="-687.66803"
     id="text1337"><tspan
       id="tspan1335"
       x="476.14429"
       y="-678.03851"
       style="stroke-width:0.26458332" /></text>
  <text
     xml:space="preserve"
     style="font-style:italic;font-variant:normal;font-weight:normal;font-stretch:normal;font-size:10.58333302px;line-height:1.25;font-family:'Noto Sans';-inkscape-font-specification:'Noto Sans Italic';letter-spacing:0px;word-spacing:0px;fill:#000000;fill-opacity:1;stroke:none;stroke-width:0.26458332"
     x="-360.177"
     y="-632.74469"
     id="text1341"><tspan
       id="tspan1339"
       x="-360.177"
       y="-623.11517"
       style="stroke-width:0.26458332" /></text>
  <text
     xml:space="preserve"
     style="font-style:italic;font-variant:normal;font-weight:normal;font-stretch:normal;font-size:10.58333302px;line-height:1.25;font-family:'Noto Sans';-inkscape-font-specification:'Noto Sans Italic';letter-spacing:0px;word-spacing:0px;fill:#000000;fill-opacity:1;stroke:none;stroke-width:0.26458332"
     x="417.69489"
     y="-542.26715"
     id="text1425"><tspan
       id="tspan1423"
       x="417.69489"
       y="-532.63763"
       style="stroke-width:0.26458332" /></text>
  <text
     xml:space="preserve"
     style="font-style:italic;font-variant:normal;font-weight:normal;font-stretch:normal;font-size:10.58333302px;line-height:1.25;font-family:'Noto Sans';-inkscape-font-specification:'Noto Sans Italic';letter-spacing:0px;word-spacing:0px;fill:#000000;fill-opacity:1;stroke:none;stroke-width:0.26458332"
     x="-410.35092"
     y="-538.91833"
     id="text1450"><tspan
       id="tspan1448"
       x="-410.35092"
       y="-529.28882"
       style="stroke-width:0.26458332" /></text>
  <text
     xml:space="preserve"
     style="font-style:italic;font-variant:normal;font-weight:normal;font-stretch:normal;font-size:10.58333302px;line-height:1.25;font-family:'Noto Sans';-inkscape-font-specification:'Noto Sans Italic';letter-spacing:0px;word-spacing:0px;fill:#000000;fill-opacity:1;stroke:none;stroke-width:0.26458332"
     x="-190.06024"
     y="-158.68527"
     id="text1807"><tspan
       id="tspan1805"
       x="-190.06024"
       y="-149.05576"
       style="stroke-width:0.26458332" /></text>
  <g
     transform="translate(0,0.97175747)"
     id="g931">
    <path
       id="path5454-7"
       d="m 47.571919,10.115604 c -10e-4,0.0506 0.029,0.14267 0.23935,0.152 0.12154,0.005 0.53082,-0.0206 0.98246,-0.10032 2.2024,-0.3982901 2.80186,-0.3740601 2.80186,-0.3740601 0.43365,0.001 0.47415,-0.91085 0.0405,-0.91224 l -0.31319,-0.002 c -0.90034,0.0729 -1.899,0.52227 -3.33894,0.52227 -0.43231,0.0288 -0.41375,0.26992 -0.41457,0.37162 z"
       style="color:#000000;font-style:normal;font-variant:normal;font-weight:normal;font-stretch:normal;font-size:medium;line-height:normal;font-family:sans-serif;font-variant-ligatures:normal;font-variant-position:normal;font-variant-caps:normal;font-variant-numeric:normal;font-variant-alternates:normal;font-feature-settings:normal;text-indent:0;text-align:start;text-decoration:none;text-decoration-line:none;text-decoration-style:solid;text-decoration-color:#000000;letter-spacing:normal;word-spacing:normal;text-transform:none;writing-mode:lr-tb;direction:ltr;text-orientation:mixed;dominant-baseline:auto;baseline-shift:baseline;text-anchor:start;white-space:normal;shape-padding:0;clip-rule:nonzero;display:inline;overflow:visible;visibility:visible;opacity:1;isolation:auto;mix-blend-mode:normal;color-interpolation:sRGB;color-interpolation-filters:linearRGB;solid-color:#000000;solid-opacity:1;vector-effect:none;fill:#2d2926;fill-opacity:1;fill-rule:nonzero;stroke:#2d2926;stroke-width:0.2;stroke-linecap:round;stroke-linejoin:miter;stroke-miterlimit:4;stroke-dasharray:none;stroke-dashoffset:0;stroke-opacity:1;color-rendering:auto;image-rendering:auto;shape-rendering:auto;text-rendering:auto;enable-background:accumulate" />
    <g
       id="text869"
       style="font-style:italic;font-variant:normal;font-weight:normal;font-stretch:normal;font-size:12.72148895px;line-height:1.25;font-family:Kollektif;-inkscape-font-specification:'Kollektif Italic';letter-spacing:0px;word-spacing:0px;opacity:1;fill:#2d2926;fill-opacity:1;stroke:#2d2926;stroke-width:0.31803721;stroke-opacity:1"
       aria-label="bootload."
       transform="translate(40.224479,-25.119095)">
      <path
         id="path1017"
         style="font-style:italic;font-variant:normal;font-weight:normal;font-stretch:normal;font-family:Kollektif;-inkscape-font-specification:'Kollektif Italic';fill:#2d2926;fill-opacity:1;stroke:#2d2926;stroke-width:0.31803721;stroke-opacity:1"
         d="M 1.3385743,40.281078 H 0.35901969 L 1.8219909,30.994391 h 1.2339844 l -0.6106314,3.854612 q 0.4070876,-0.381645 0.9159472,-0.585189 0.5088595,-0.216265 1.1322125,-0.216265 0.6360744,0 1.1322125,0.25443 0.5088596,0.241708 0.8268968,0.674238 0.3307587,0.432531 0.4579736,1.01772 0.1272149,0.585188 0.025443,1.246705 -0.1017719,0.661518 -0.4198092,1.246706 -0.3180372,0.585189 -0.7760108,1.01772 -0.4579736,0.43253 -1.0431621,0.68696 -0.572467,0.241708 -1.2085414,0.241708 -0.59791,0 -1.0431621,-0.203544 Q 2.0000918,40.013927 1.6820545,39.645004 Z M 4.2136308,35.16704 q -0.3689231,0 -0.7251248,0.114493 -0.3434802,0.101772 -0.6360745,0.356202 -0.2798727,0.241708 -0.4834166,0.636074 -0.2035438,0.394366 -0.2925942,0.966833 -0.076329,0.534303 0,0.928669 0.076329,0.394366 0.2798728,0.661518 0.2035438,0.254429 0.5088595,0.381644 0.3180372,0.127215 0.6869604,0.127215 0.3689232,0 0.7251249,-0.165379 Q 4.63344,39.008929 4.9133127,38.729057 5.205907,38.436462 5.4094508,38.054818 5.6129946,37.673173 5.6766021,37.240642 5.752931,36.808112 5.6638806,36.426467 5.5875517,36.044823 5.3840078,35.76495 5.1931855,35.485077 4.8878698,35.332419 4.582554,35.16704 4.2136308,35.16704 Z" />
      <path
         id="path1019"
         style="font-style:italic;font-variant:normal;font-weight:normal;font-stretch:normal;font-family:Kollektif;-inkscape-font-specification:'Kollektif Italic';fill:#2d2926;fill-opacity:1;stroke:#2d2926;stroke-width:0.31803721;stroke-opacity:1"
         d="m 10.396076,40.433736 q -0.6360749,0 -1.157656,-0.241708 -0.5088595,-0.25443 -0.8650612,-0.68696 -0.3434802,-0.432531 -0.4961381,-1.01772 -0.1399364,-0.585188 -0.038164,-1.246706 0.1017719,-0.661517 0.4325307,-1.246705 0.3434802,-0.585189 0.8268967,-1.01772 0.4834166,-0.43253 1.0686059,-0.674238 0.59791,-0.25443 1.233984,-0.25443 0.623353,0 1.144934,0.25443 0.521581,0.241708 0.865061,0.674238 0.343481,0.432531 0.483417,1.01772 0.152658,0.585188 0.05089,1.246705 -0.101772,0.661518 -0.432531,1.246706 -0.330758,0.585189 -0.814175,1.01772 -0.483417,0.43253 -1.081327,0.68696 -0.59791,0.241708 -1.221262,0.241708 z m 0.826896,-5.279418 q -0.368923,0 -0.725125,0.16538 -0.356201,0.165379 -0.6487955,0.445252 -0.2798728,0.279873 -0.4834166,0.661517 -0.2035438,0.381645 -0.2798728,0.814175 -0.063607,0.432531 0.012721,0.814176 0.089051,0.381644 0.2798728,0.674239 0.2035438,0.279872 0.5088596,0.445252 0.3053155,0.165379 0.6742395,0.165379 0.368923,0 0.725125,-0.165379 0.356201,-0.16538 0.636074,-0.445252 0.292594,-0.292595 0.496138,-0.674239 0.203544,-0.381645 0.267152,-0.814176 0.07633,-0.43253 -0.01272,-0.814175 -0.07633,-0.381644 -0.279873,-0.661517 -0.190822,-0.279873 -0.496138,-0.445252 -0.305316,-0.16538 -0.674239,-0.16538 z" />
      <path
         id="path1021"
         style="font-style:italic;font-variant:normal;font-weight:normal;font-stretch:normal;font-family:Kollektif;-inkscape-font-specification:'Kollektif Italic';fill:#2d2926;fill-opacity:1;stroke:#2d2926;stroke-width:0.31803721;stroke-opacity:1"
         d="m 17.104674,40.433736 q -0.636075,0 -1.157656,-0.241708 -0.508859,-0.25443 -0.865061,-0.68696 -0.34348,-0.432531 -0.496138,-1.01772 -0.139937,-0.585188 -0.03817,-1.246706 0.101772,-0.661517 0.432531,-1.246705 0.34348,-0.585189 0.826897,-1.01772 0.483416,-0.43253 1.068605,-0.674238 0.59791,-0.25443 1.233984,-0.25443 0.623353,0 1.144934,0.25443 0.521581,0.241708 0.865062,0.674238 0.34348,0.432531 0.483416,1.01772 0.152658,0.585188 0.05089,1.246705 -0.101772,0.661518 -0.432531,1.246706 -0.330758,0.585189 -0.814175,1.01772 -0.483416,0.43253 -1.081326,0.68696 -0.59791,0.241708 -1.221263,0.241708 z m 0.826896,-5.279418 q -0.368923,0 -0.725124,0.16538 -0.356202,0.165379 -0.648796,0.445252 -0.279873,0.279873 -0.483417,0.661517 -0.203544,0.381645 -0.279873,0.814175 -0.06361,0.432531 0.01272,0.814176 0.08905,0.381644 0.279873,0.674239 0.203543,0.279872 0.508859,0.445252 0.305316,0.165379 0.674239,0.165379 0.368923,0 0.725125,-0.165379 0.356202,-0.16538 0.636074,-0.445252 0.292595,-0.292595 0.496138,-0.674239 0.203544,-0.381645 0.267152,-0.814176 0.07633,-0.43253 -0.01272,-0.814175 -0.07633,-0.381644 -0.279873,-0.661517 -0.190822,-0.279873 -0.496138,-0.445252 -0.305315,-0.16538 -0.674239,-0.16538 z" />
      <path
         id="path1023"
         style="font-style:italic;font-variant:normal;font-weight:normal;font-stretch:normal;font-family:Kollektif;-inkscape-font-specification:'Kollektif Italic';fill:#2d2926;fill-opacity:1;stroke:#2d2926;stroke-width:0.31803721;stroke-opacity:1"
         d="m 24.474788,40.268357 q -0.547024,0.178101 -1.068605,0.216265 -0.521581,0.03816 -0.903226,-0.152658 -0.368923,-0.178101 -0.559745,-0.636074 -0.178101,-0.470695 -0.03816,-1.310314 l 0.496139,-3.091321 h -0.890505 l 0.127215,-0.85234 0.928669,-0.25443 0.267151,-1.62835 h 1.233985 l -0.267152,1.62835 h 1.653794 l -0.165379,1.10677 H 23.63517 l -0.521581,3.282144 q -0.101772,0.610631 0.178101,0.750568 0.292594,0.139936 1.081326,0.03816 l 0.101772,0.903226 z" />
      <path
         id="path1025"
         style="font-style:italic;font-variant:normal;font-weight:normal;font-stretch:normal;font-family:Kollektif;-inkscape-font-specification:'Kollektif Italic';fill:#2d2926;fill-opacity:1;stroke:#2d2926;stroke-width:0.31803721;stroke-opacity:1"
         d="m 28.27593,30.994391 v 0 l -1.462971,9.286687 h -1.233985 l 1.462971,-9.286687 z" />
      <path
         id="path1027"
         style="font-style:italic;font-variant:normal;font-weight:normal;font-stretch:normal;font-family:Kollektif;-inkscape-font-specification:'Kollektif Italic';fill:#2d2926;fill-opacity:1;stroke:#2d2926;stroke-width:0.31803721;stroke-opacity:1"
         d="m 30.869723,40.433736 q -0.636075,0 -1.157656,-0.241708 -0.508859,-0.25443 -0.865061,-0.68696 -0.34348,-0.432531 -0.496138,-1.01772 -0.139937,-0.585188 -0.03816,-1.246706 0.101772,-0.661517 0.432531,-1.246705 0.34348,-0.585189 0.826897,-1.01772 0.483416,-0.43253 1.068605,-0.674238 0.59791,-0.25443 1.233984,-0.25443 0.623353,0 1.144934,0.25443 0.521581,0.241708 0.865062,0.674238 0.34348,0.432531 0.483416,1.01772 0.152658,0.585188 0.05089,1.246705 -0.101772,0.661518 -0.432531,1.246706 -0.330758,0.585189 -0.814175,1.01772 -0.483416,0.43253 -1.081326,0.68696 -0.59791,0.241708 -1.221263,0.241708 z m 0.826896,-5.279418 q -0.368923,0 -0.725124,0.16538 -0.356202,0.165379 -0.648796,0.445252 -0.279873,0.279873 -0.483417,0.661517 -0.203544,0.381645 -0.279873,0.814175 -0.06361,0.432531 0.01272,0.814176 0.08905,0.381644 0.279873,0.674239 0.203543,0.279872 0.508859,0.445252 0.305316,0.165379 0.674239,0.165379 0.368923,0 0.725125,-0.165379 0.356202,-0.16538 0.636074,-0.445252 0.292595,-0.292595 0.496138,-0.674239 0.203544,-0.381645 0.267152,-0.814176 0.07633,-0.43253 -0.01272,-0.814175 -0.07633,-0.381644 -0.279873,-0.661517 -0.190822,-0.279873 -0.496138,-0.445252 -0.305315,-0.16538 -0.674239,-0.16538 z" />
      <path
         id="path1029"
         style="font-style:italic;font-variant:normal;font-weight:normal;font-stretch:normal;font-family:Kollektif;-inkscape-font-specification:'Kollektif Italic';fill:#2d2926;fill-opacity:1;stroke:#2d2926;stroke-width:0.31803721;stroke-opacity:1"
         d="m 41.661916,34.187485 -0.954112,6.093593 h -1.043162 l -0.08905,-0.699682 q -0.381645,0.41981 -0.915948,0.636075 -0.521581,0.216265 -1.03044,0.216265 -0.636075,0 -1.157656,-0.241708 -0.508859,-0.25443 -0.865061,-0.68696 -0.34348,-0.432531 -0.496138,-1.01772 -0.139936,-0.585188 -0.03816,-1.246706 0.101771,-0.661517 0.43253,-1.246705 0.34348,-0.585189 0.826897,-1.01772 0.483417,-0.43253 1.068605,-0.674238 0.59791,-0.25443 1.233984,-0.25443 0.50886,0 0.941391,0.203544 0.445252,0.190822 0.750568,0.610631 l 0.292594,-0.674239 z m -3.867333,5.152203 q 0.368923,0 0.725125,-0.165379 0.356202,-0.16538 0.636075,-0.445252 0.292594,-0.292595 0.496138,-0.674239 0.203543,-0.381645 0.267151,-0.814176 0.07633,-0.43253 -0.01272,-0.814175 -0.07633,-0.381644 -0.279872,-0.661517 -0.190823,-0.292594 -0.496138,-0.457974 -0.305316,-0.165379 -0.674239,-0.165379 -0.368924,0 -0.725125,0.165379 -0.356202,0.16538 -0.648796,0.457974 -0.279873,0.279873 -0.483417,0.661517 -0.190822,0.381645 -0.267151,0.814175 -0.06361,0.432531 0.01272,0.814176 0.07633,0.381644 0.279873,0.674239 0.203544,0.279872 0.496138,0.445252 0.305316,0.165379 0.674239,0.165379 z" />
      <path
         id="path1031"
         style="font-style:italic;font-variant:normal;font-weight:normal;font-stretch:normal;font-family:Kollektif;-inkscape-font-specification:'Kollektif Italic';fill:#2d2926;fill-opacity:1;stroke:#2d2926;stroke-width:0.31803721;stroke-opacity:1"
         d="m 49.253266,30.994391 -1.462971,9.286687 H 46.81074 l -0.165379,-0.636074 q -0.419809,0.368923 -0.928669,0.585188 -0.496138,0.203544 -1.106769,0.203544 -0.636075,0 -1.132213,-0.241708 -0.496138,-0.25443 -0.826897,-0.68696 -0.318037,-0.432531 -0.457973,-1.01772 -0.127215,-0.585188 -0.02544,-1.246706 0.101772,-0.661517 0.419809,-1.246705 0.318037,-0.585189 0.776011,-1.01772 0.470695,-0.43253 1.043162,-0.674238 0.572467,-0.25443 1.208541,-0.25443 0.636075,0 1.068605,0.216265 0.432531,0.203544 0.725125,0.585189 l 0.610632,-3.854612 z m -4.376192,8.345297 q 0.381645,0 0.725125,-0.127215 0.356201,-0.127215 0.636074,-0.381644 0.292595,-0.267152 0.496138,-0.661518 0.203544,-0.394366 0.279873,-0.928669 0.08905,-0.572467 0.01272,-0.966833 -0.07633,-0.394366 -0.279873,-0.636074 -0.203544,-0.25443 -0.521581,-0.356202 -0.305316,-0.114493 -0.686961,-0.114493 -0.368923,0 -0.725125,0.165379 -0.356201,0.152658 -0.648795,0.432531 -0.279873,0.279873 -0.483417,0.661517 -0.190822,0.381645 -0.267151,0.814175 -0.06361,0.432531 0.01272,0.814176 0.07633,0.381644 0.279873,0.674239 0.203544,0.279872 0.496138,0.445252 0.305316,0.165379 0.674239,0.165379 z" />
      <path
         id="path1033"
         style="font-style:italic;font-variant:normal;font-weight:normal;font-stretch:normal;font-family:Kollektif;-inkscape-font-specification:'Kollektif Italic';fill:#2d2926;fill-opacity:1;stroke:#2d2926;stroke-width:0.31803721;stroke-opacity:1"
         d="m 49.254856,39.619561 q 0.05089,-0.330759 0.318037,-0.559746 0.267151,-0.241708 0.59791,-0.241708 0.330759,0 0.521581,0.241708 0.190823,0.228987 0.139937,0.559746 -0.06361,0.330759 -0.330759,0.559745 -0.25443,0.228987 -0.585189,0.228987 -0.330758,0 -0.534302,-0.228987 -0.190822,-0.228986 -0.127215,-0.559745 z" />
    </g>
  </g>
  <path
     style="opacity:0.89800002;vector-effect:none;fill:#ff5757;fill-opacity:1;stroke-width:0.10252401;stroke-linecap:butt;stroke-linejoin:miter;stroke-miterlimit:4;stroke-dasharray:none;stroke-dashoffset:0;stroke-opacity:1"
     d="m 31.751515,12.463097 -9.21249,9.115861 c -1.30384,1.53186 -2.37101,1.81272 -4.31918,1.49576 l -16.0662301,-1.9688 c -2.22052002,-0.36124 -2.60137002,-0.92469 -1.31458002,-2.05779 L 10.922135,10.261047 c 1.56837,-1.2790498 2.24882,-1.4959798 4.33766,-1.3301898 l 15.23424,1.4812598 c 2.06463,0.1636 2.43986,0.66218 1.25748,2.05098"
     id="path866-6" />
  <path
     id="path850-2"
     d="m 31.647565,8.0218872 -9.21248,9.1158508 c -1.30385,1.53186 -2.37101,1.81272 -4.31918,1.49576 l -16.0662301,-1.9688 c -2.22053002,-0.36123 -2.60137002,-0.92468 -1.31458002,-2.057781 L 10.818185,5.8198273 c 1.56838,-1.2790501 2.24882,-1.4959801 4.33766,-1.3301901 2.08898,0.16579 13.16991,1.3174201 15.23425,1.4812601 2.06462,0.1636 2.43985,0.66218 1.25747,2.0509899"
     style="opacity:0.90100002;vector-effect:none;fill:#ffde59;fill-opacity:1;stroke-width:0.10252401;stroke-linecap:butt;stroke-linejoin:miter;stroke-miterlimit:4;stroke-dasharray:none;stroke-dashoffset:0;stroke-opacity:1" />
  <path
     style="opacity:0.881;fill:#6699ff;stroke-width:0.13770476"
     d="m 31.694815,3.5806672 -9.21248,9.1158398 c -1.30385,1.53187 -2.37102,1.81273 -4.31919,1.49577 l -16.0662201,-1.9688 c -2.22053002,-0.36124 -2.60138002,-0.92468 -1.31459002,-2.05778 L 10.865435,1.3786072 c 1.56837,-1.27904995 2.24882,-1.49597995 4.33766,-1.33018995 l 15.23424,1.48125995 c 2.06463,0.1636 2.43986,0.66218 1.25748,2.05099"
     id="path4532-8" />
  <style
     type="text/css"
     id="style1557">
	.st0{fill:#F38B00;}
	.st1{fill:#F7A800;}
	.st2{fill:#FFC627;}
	.st3{fill:url(#SVGID_1_);}
	.st4{fill:url(#SVGID_2_);}
	.st5{fill:url(#SVGID_3_);}
	.st6{fill:url(#SVGID_4_);}
	.st7{fill:#2D2926;}
</style>
  <style
     type="text/css"
     id="style877">
	.st0{fill:#F38B00;}
	.st1{fill:#F7A800;}
	.st2{fill:#FFC627;}
	.st3{fill:url(#SVGID_1_);}
	.st4{fill:url(#SVGID_2_);}
	.st5{fill:url(#SVGID_3_);}
	.st6{fill:url(#SVGID_4_);}
	.st7{fill:#2D2926;}
</style>
</svg>
